<svg version="1.1" id="Layer_1" xmlns="http://www.w3.org/2000/svg" xmlns:xlink="http://www.w3.org/1999/xlink" x="0px" y="0px"
	 width="100%" viewBox="0 0 1024 1024" enable-background="new 0 0 1024 1024" xml:space="preserve">
<path fill="#000000" opacity="1.000000" stroke="none" 
	d="
M534.903076,746.162720 
	C469.134033,754.988770 411.404480,737.269348 361.038055,695.431396 
	C324.876221,665.392700 299.384399,627.981750 286.830353,582.316040 
	C282.427673,566.300964 281.597290,549.880249 281.534515,533.315979 
	C281.353790,485.618164 295.826172,443.095642 324.779663,405.179962 
	C351.551971,370.120605 385.181335,344.705231 427.277252,331.296539 
	C448.577484,324.511841 470.671265,321.496399 493.091400,320.576080 
	C523.474609,319.328857 552.897705,323.748932 581.238831,334.573456 
	C614.597656,347.314331 644.781006,365.232330 669.837524,391.084991 
	C672.079346,393.398041 674.772217,395.560730 670.423462,398.577850 
	C668.177734,400.135864 666.837585,399.854645 664.875122,398.044495 
	C631.823059,367.558105 592.489990,349.195496 549.044983,339.460876 
	C512.062561,331.174286 475.225800,333.225525 439.057556,344.456726 
	C411.983917,352.863800 387.931641,366.598267 366.700134,385.653351 
	C338.051605,411.365112 317.847015,442.254639 306.873108,479.087189 
	C299.358917,504.307678 297.368591,530.055237 301.044403,556.164246 
	C310.573517,623.848145 348.412323,671.724365 406.328217,704.995544 
	C438.766510,723.630432 474.080627,732.482483 511.588654,731.641235 
	C540.546082,730.991699 568.432129,725.285156 594.783875,712.880920 
	C602.065125,709.453430 606.543213,710.870972 612.397705,718.746277 
	C588.301208,732.715515 562.650269,741.666382 534.903076,746.162720 
z"/>
<path fill="#000000" opacity="1.000000" stroke="none" 
	d="
M552.441895,597.558655 
	C577.769348,621.495178 601.388000,646.636414 625.692993,671.093201 
	C629.330566,674.753479 633.308044,676.928467 638.614258,676.015076 
	C639.890625,675.795288 641.263489,675.536011 642.678223,676.563232 
	C641.926025,680.973267 637.180420,681.264893 634.253479,684.286194 
	C640.494995,690.656860 643.040405,698.109558 640.597778,707.111084 
	C639.918701,706.755188 639.175842,706.547241 639.175903,706.339600 
	C639.179932,698.987793 634.398193,695.221558 628.830322,691.661011 
	C608.164612,678.445862 586.244019,667.504395 564.636292,656.005798 
	C556.492859,651.672424 549.102966,646.687317 542.443359,640.152710 
	C521.761780,619.859375 500.628662,600.026123 479.758728,580.098389 
	C477.118408,580.547974 476.456940,582.606567 475.496643,584.257202 
	C462.176361,607.153687 449.145538,630.210510 437.722870,654.130066 
	C435.822083,658.110352 433.466095,659.754456 429.045990,657.816162 
	C426.140442,656.541992 422.946106,656.437561 419.714874,656.855103 
	C416.775787,657.234863 413.776611,657.713379 410.950897,656.983948 
	C409.229401,655.564026 411.145233,654.059814 410.548340,652.608826 
	C408.458130,651.538025 406.135864,651.324097 403.814697,651.378601 
	C394.657196,651.593689 385.502258,651.922791 376.344482,652.120850 
	C374.263123,652.165833 371.601685,652.649719 371.056732,649.707764 
	C370.520081,646.810669 372.261810,644.825073 374.914856,644.089539 
	C380.908905,642.427795 382.192719,638.221313 382.142151,632.632019 
	C381.970337,613.637817 381.784210,594.635437 382.201660,575.649353 
	C382.324493,570.063171 382.226257,565.606689 376.440460,563.016846 
	C374.911163,562.332397 373.741943,560.682007 374.575317,558.137878 
	C380.658783,565.224792 389.057587,567.985718 396.234741,572.586914 
	C403.285065,577.106873 409.623230,581.180420 407.786041,591.464417 
	C406.940857,596.195435 407.907166,601.384583 407.487732,606.380920 
	C406.522308,617.881287 408.649567,629.327698 408.257446,640.828125 
	C408.226440,641.737000 408.587646,642.873596 409.174377,643.551392 
	C411.473846,646.207764 421.138977,645.534607 422.889679,642.492981 
	C436.393127,619.031982 454.396057,599.153992 472.958069,579.753235 
	C476.280731,576.280457 476.083496,573.965942 472.491486,571.339111 
	C469.806061,569.375305 467.102295,567.433777 464.477020,565.391846 
	C463.119537,564.335938 461.037415,563.888367 460.884460,561.056763 
	C465.490631,562.085510 468.946869,565.017944 472.885864,566.808044 
	C480.367096,570.207947 480.346863,570.347900 485.988861,564.548523 
	C512.474976,537.323853 538.200256,509.359497 565.455444,482.880585 
	C567.624451,480.773376 569.728088,479.439026 572.871338,479.676117 
	C589.510254,480.931152 606.129761,481.282257 622.631531,478.076050 
	C624.615356,477.690613 625.940979,478.481262 626.108459,480.577179 
	C626.266602,482.555420 626.592163,485.267731 623.741516,485.137360 
	C610.398132,484.527008 603.332031,494.640106 594.943054,502.065887 
	C571.496521,522.820251 548.463989,544.041626 525.134888,564.930054 
	C522.225891,567.534729 522.878601,569.044800 525.234131,571.288452 
	C534.277161,579.902039 543.217529,588.623474 552.441895,597.558655 
z"/>
<path fill="#000000" opacity="1.000000" stroke="none" 
	d="
M382.603516,482.759521 
	C382.643585,469.117706 382.712036,455.952637 382.728241,442.787537 
	C382.735321,437.039703 381.831696,436.116974 376.082977,436.005920 
	C372.919220,435.944824 369.751556,436.118378 366.586029,436.103790 
	C365.111725,436.097015 363.430176,436.220093 362.816986,434.388214 
	C362.302856,432.852203 362.671753,431.461304 363.868042,430.280182 
	C367.807465,426.390503 371.607819,422.919708 378.044189,423.538239 
	C385.145996,424.220703 392.583618,424.851837 399.481079,423.498199 
	C413.628387,420.721710 427.678864,424.098907 441.722717,422.806458 
	C442.549713,422.730377 443.388000,422.779907 444.220917,422.764160 
	C446.274139,422.725372 447.314606,423.717102 447.301697,425.783569 
	C447.288818,427.843903 445.862030,428.221497 444.254089,428.237640 
	C437.922058,428.301300 431.589600,428.338043 425.257263,428.354736 
	C409.972168,428.395050 410.067078,428.388702 409.992310,443.659973 
	C409.873322,467.963379 409.602814,492.265991 409.420013,516.569153 
	C409.372589,522.871277 409.412872,529.174072 409.412872,536.286438 
	C444.514221,495.596741 472.372925,449.579712 515.375610,417.035370 
	C516.498108,418.391235 515.955994,419.118835 515.468750,419.765381 
	C503.691620,435.393036 496.521667,453.375000 489.299744,471.299622 
	C474.238739,508.680908 459.340179,546.127686 444.350800,583.537903 
	C443.692993,585.179626 443.345306,587.083923 441.130707,588.304016 
	C430.256104,577.963013 416.898071,570.939026 405.021423,561.864441 
	C399.601013,557.722900 393.703217,555.446228 387.044586,555.464844 
	C382.726318,555.476929 381.656281,553.606506 381.766296,549.695679 
	C382.389191,527.547974 381.042938,505.374237 382.603516,482.759521 
z"/>
<path fill="#000000" opacity="1.000000" stroke="none" 
	d="
M550.382446,455.394653 
	C532.500427,470.600067 516.488037,487.209167 501.283386,504.503021 
	C499.498627,503.156006 500.264587,502.196625 500.730560,501.443573 
	C514.390259,479.370026 525.804565,455.908142 541.951233,435.367188 
	C550.380310,424.644135 561.206482,416.529236 571.169556,407.467010 
	C572.306702,406.432709 573.775085,405.943390 575.302856,405.880981 
	C591.031677,405.238220 606.075928,400.431458 621.558960,398.280029 
	C626.990051,397.525360 632.353088,396.282867 637.748596,395.270233 
	C639.677917,394.908142 641.619202,394.310059 643.784485,395.528900 
	C642.703979,399.033356 639.428040,399.879028 636.786194,401.202545 
	C622.491760,408.363708 608.116577,415.343567 594.508118,423.808716 
	C579.209229,433.325439 564.447754,443.561493 550.382446,455.394653 
z"/>
</svg>